<svg viewBox="0 0 330 200" xmlns="http://www.w3.org/2000/svg"><g><g><g><g><g><line x1="40.84375" y1="175" x2="35.84375" y2="175" style="visibility: inherit;" fill="rgb(0, 0, 0)" stroke="rgb(204, 204, 204)" stroke-width="1px"></line><line x1="40.84375" y1="161.53846153846155" x2="35.84375" y2="161.53846153846155" style="visibility: inherit;" fill="rgb(0, 0, 0)" stroke="rgb(204, 204, 204)" stroke-width="1px"></line><line x1="40.84375" y1="148.07692307692307" x2="35.84375" y2="148.07692307692307" style="visibility: inherit;" fill="rgb(0, 0, 0)" stroke="rgb(204, 204, 204)" stroke-width="1px"></line><line x1="40.84375" y1="134.6153846153846" x2="35.84375" y2="134.6153846153846" style="visibility: inherit;" fill="rgb(0, 0, 0)" stroke="rgb(204, 204, 204)" stroke-width="1px"></line><line x1="40.84375" y1="121.15384615384615" x2="35.84375" y2="121.15384615384615" style="visibility: inherit;" fill="rgb(0, 0, 0)" stroke="rgb(204, 204, 204)" stroke-width="1px"></line><line x1="40.84375" y1="107.6923076923077" x2="35.84375" y2="107.6923076923077" style="visibility: inherit;" fill="rgb(0, 0, 0)" stroke="rgb(204, 204, 204)" stroke-width="1px"></line><line x1="40.84375" y1="94.23076923076923" x2="35.84375" y2="94.23076923076923" style="visibility: inherit;" fill="rgb(0, 0, 0)" stroke="rgb(204, 204, 204)" stroke-width="1px"></line><line x1="40.84375" y1="80.76923076923077" x2="35.84375" y2="80.76923076923077" style="visibility: inherit;" fill="rgb(0, 0, 0)" stroke="rgb(204, 204, 204)" stroke-width="1px"></line><line x1="40.84375" y1="67.3076923076923" x2="35.84375" y2="67.3076923076923" style="visibility: inherit;" fill="rgb(0, 0, 0)" stroke="rgb(204, 204, 204)" stroke-width="1px"></line><line x1="40.84375" y1="53.84615384615385" x2="35.84375" y2="53.84615384615385" style="visibility: inherit;" fill="rgb(0, 0, 0)" stroke="rgb(204, 204, 204)" stroke-width="1px"></line><line x1="40.84375" y1="40.38461538461538" x2="35.84375" y2="40.38461538461538" style="visibility: inherit;" fill="rgb(0, 0, 0)" stroke="rgb(204, 204, 204)" stroke-width="1px"></line><line x1="40.84375" y1="26.923076923076923" x2="35.84375" y2="26.923076923076923" style="visibility: inherit;" fill="rgb(0, 0, 0)" stroke="rgb(204, 204, 204)" stroke-width="1px"></line><line x1="40.84375" y1="13.461538461538453" x2="35.84375" y2="13.461538461538453" style="visibility: inherit;" fill="rgb(0, 0, 0)" stroke="rgb(204, 204, 204)" stroke-width="1px"></line><line x1="40.84375" y1="0" x2="35.84375" y2="0" style="visibility: inherit;" fill="rgb(0, 0, 0)" stroke="rgb(204, 204, 204)" stroke-width="1px"></line></g><g transform="translate(30.84375, 0)"><text x="0" y="175" dx="0em" dy="0.3em" style="text-anchor: end; visibility: hidden; font-family: Roboto, sans-serif; font-size: 12px; font-weight: 200;" fill="rgb(50, 49, 63)" stroke="none" stroke-width="1px">-20</text><text x="0" y="161.53846153846155" dx="0em" dy="0.3em" style="text-anchor: end; visibility: inherit; font-family: Roboto, sans-serif; font-size: 12px; font-weight: 200;" fill="rgb(50, 49, 63)" stroke="none" stroke-width="1px">0</text><text x="0" y="148.07692307692307" dx="0em" dy="0.3em" style="text-anchor: end; visibility: hidden; font-family: Roboto, sans-serif; font-size: 12px; font-weight: 200;" fill="rgb(50, 49, 63)" stroke="none" stroke-width="1px">20</text><text x="0" y="134.6153846153846" dx="0em" dy="0.3em" style="text-anchor: end; visibility: inherit; font-family: Roboto, sans-serif; font-size: 12px; font-weight: 200;" fill="rgb(50, 49, 63)" stroke="none" stroke-width="1px">40</text><text x="0" y="121.15384615384615" dx="0em" dy="0.3em" style="text-anchor: end; visibility: hidden; font-family: Roboto, sans-serif; font-size: 12px; font-weight: 200;" fill="rgb(50, 49, 63)" stroke="none" stroke-width="1px">60</text><text x="0" y="107.6923076923077" dx="0em" dy="0.3em" style="text-anchor: end; visibility: inherit; font-family: Roboto, sans-serif; font-size: 12px; font-weight: 200;" fill="rgb(50, 49, 63)" stroke="none" stroke-width="1px">80</text><text x="0" y="94.23076923076923" dx="0em" dy="0.3em" style="text-anchor: end; visibility: hidden; font-family: Roboto, sans-serif; font-size: 12px; font-weight: 200;" fill="rgb(50, 49, 63)" stroke="none" stroke-width="1px">100</text><text x="0" y="80.76923076923077" dx="0em" dy="0.3em" style="text-anchor: end; visibility: inherit; font-family: Roboto, sans-serif; font-size: 12px; font-weight: 200;" fill="rgb(50, 49, 63)" stroke="none" stroke-width="1px">120</text><text x="0" y="67.3076923076923" dx="0em" dy="0.3em" style="text-anchor: end; visibility: hidden; font-family: Roboto, sans-serif; font-size: 12px; font-weight: 200;" fill="rgb(50, 49, 63)" stroke="none" stroke-width="1px">140</text><text x="0" y="53.84615384615385" dx="0em" dy="0.3em" style="text-anchor: end; visibility: inherit; font-family: Roboto, sans-serif; font-size: 12px; font-weight: 200;" fill="rgb(50, 49, 63)" stroke="none" stroke-width="1px">160</text><text x="0" y="40.38461538461538" dx="0em" dy="0.3em" style="text-anchor: end; visibility: hidden; font-family: Roboto, sans-serif; font-size: 12px; font-weight: 200;" fill="rgb(50, 49, 63)" stroke="none" stroke-width="1px">180</text><text x="0" y="26.923076923076923" dx="0em" dy="0.3em" style="text-anchor: end; visibility: inherit; font-family: Roboto, sans-serif; font-size: 12px; font-weight: 200;" fill="rgb(50, 49, 63)" stroke="none" stroke-width="1px">200</text><text x="0" y="13.461538461538453" dx="0em" dy="0.3em" style="text-anchor: end; visibility: hidden; font-family: Roboto, sans-serif; font-size: 12px; font-weight: 200;" fill="rgb(50, 49, 63)" stroke="none" stroke-width="1px">220</text><text x="0" y="0" dx="0em" dy="0.3em" style="text-anchor: end; visibility: hidden; font-family: Roboto, sans-serif; font-size: 12px; font-weight: 200;" fill="rgb(50, 49, 63)" stroke="none" stroke-width="1px">240</text></g><line x1="40.84375" y1="0" x2="40.84375" y2="175" fill="rgb(0, 0, 0)" stroke="rgb(204, 204, 204)" stroke-width="1px"></line></g></g><g transform="translate(40, 0)" clip-path="url(#clip_0)"><clipPath id="clip_0"><rect width="289" height="175"></rect></clipPath><g><g><g><line x1="0" y1="0" x2="0" y2="175" fill="rgb(0, 0, 0)" stroke="rgb(60, 60, 60)" stroke-width="1px" opacity="0.25"></line><line x1="24.096354166666664" y1="0" x2="24.096354166666664" y2="175" fill="rgb(0, 0, 0)" stroke="rgb(60, 60, 60)" stroke-width="1px" opacity="0.25"></line><line x1="48.19270833333333" y1="0" x2="48.19270833333333" y2="175" fill="rgb(0, 0, 0)" stroke="rgb(60, 60, 60)" stroke-width="1px" opacity="0.25"></line><line x1="72.2890625" y1="0" x2="72.2890625" y2="175" fill="rgb(0, 0, 0)" stroke="rgb(60, 60, 60)" stroke-width="1px" opacity="0.25"></line><line x1="96.38541666666666" y1="0" x2="96.38541666666666" y2="175" fill="rgb(0, 0, 0)" stroke="rgb(60, 60, 60)" stroke-width="1px" opacity="0.25"></line><line x1="120.48177083333334" y1="0" x2="120.48177083333334" y2="175" fill="rgb(0, 0, 0)" stroke="rgb(60, 60, 60)" stroke-width="1px" opacity="0.25"></line><line x1="144.578125" y1="0" x2="144.578125" y2="175" fill="rgb(0, 0, 0)" stroke="rgb(60, 60, 60)" stroke-width="1px" opacity="0.25"></line><line x1="168.67447916666669" y1="0" x2="168.67447916666669" y2="175" fill="rgb(0, 0, 0)" stroke="rgb(60, 60, 60)" stroke-width="1px" opacity="0.25"></line><line x1="192.77083333333331" y1="0" x2="192.77083333333331" y2="175" fill="rgb(0, 0, 0)" stroke="rgb(60, 60, 60)" stroke-width="1px" opacity="0.25"></line><line x1="216.8671875" y1="0" x2="216.8671875" y2="175" fill="rgb(0, 0, 0)" stroke="rgb(60, 60, 60)" stroke-width="1px" opacity="0.25"></line><line x1="240.96354166666669" y1="0" x2="240.96354166666669" y2="175" fill="rgb(0, 0, 0)" stroke="rgb(60, 60, 60)" stroke-width="1px" opacity="0.25"></line><line x1="265.0598958333333" y1="0" x2="265.0598958333333" y2="175" fill="rgb(0, 0, 0)" stroke="rgb(60, 60, 60)" stroke-width="1px" opacity="0.25"></line><line x1="289.15625" y1="0" x2="289.15625" y2="175" fill="rgb(0, 0, 0)" stroke="rgb(60, 60, 60)" stroke-width="1px" opacity="0.25"></line></g><g><line x1="0" y1="175" x2="289.15625" y2="175" fill="rgb(0, 0, 0)" stroke="rgb(60, 60, 60)" stroke-width="1px" opacity="0.25"></line><line x1="0" y1="161.53846153846155" x2="289.15625" y2="161.53846153846155" fill="rgb(0, 0, 0)" stroke="rgb(60, 60, 60)" stroke-width="1px" opacity="0.25"></line><line x1="0" y1="148.07692307692307" x2="289.15625" y2="148.07692307692307" fill="rgb(0, 0, 0)" stroke="rgb(60, 60, 60)" stroke-width="1px" opacity="0.25"></line><line x1="0" y1="134.6153846153846" x2="289.15625" y2="134.6153846153846" fill="rgb(0, 0, 0)" stroke="rgb(60, 60, 60)" stroke-width="1px" opacity="0.25"></line><line x1="0" y1="121.15384615384615" x2="289.15625" y2="121.15384615384615" fill="rgb(0, 0, 0)" stroke="rgb(60, 60, 60)" stroke-width="1px" opacity="0.25"></line><line x1="0" y1="107.6923076923077" x2="289.15625" y2="107.6923076923077" fill="rgb(0, 0, 0)" stroke="rgb(60, 60, 60)" stroke-width="1px" opacity="0.25"></line><line x1="0" y1="94.23076923076923" x2="289.15625" y2="94.23076923076923" fill="rgb(0, 0, 0)" stroke="rgb(60, 60, 60)" stroke-width="1px" opacity="0.25"></line><line x1="0" y1="80.76923076923077" x2="289.15625" y2="80.76923076923077" fill="rgb(0, 0, 0)" stroke="rgb(60, 60, 60)" stroke-width="1px" opacity="0.25"></line><line x1="0" y1="67.3076923076923" x2="289.15625" y2="67.3076923076923" fill="rgb(0, 0, 0)" stroke="rgb(60, 60, 60)" stroke-width="1px" opacity="0.25"></line><line x1="0" y1="53.84615384615385" x2="289.15625" y2="53.84615384615385" fill="rgb(0, 0, 0)" stroke="rgb(60, 60, 60)" stroke-width="1px" opacity="0.25"></line><line x1="0" y1="40.38461538461538" x2="289.15625" y2="40.38461538461538" fill="rgb(0, 0, 0)" stroke="rgb(60, 60, 60)" stroke-width="1px" opacity="0.25"></line><line x1="0" y1="26.923076923076923" x2="289.15625" y2="26.923076923076923" fill="rgb(0, 0, 0)" stroke="rgb(60, 60, 60)" stroke-width="1px" opacity="0.25"></line><line x1="0" y1="13.461538461538453" x2="289.15625" y2="13.461538461538453" fill="rgb(0, 0, 0)" stroke="rgb(60, 60, 60)" stroke-width="1px" opacity="0.25"></line><line x1="0" y1="0" x2="289.15625" y2="0" fill="rgb(0, 0, 0)" stroke="rgb(60, 60, 60)" stroke-width="1px" opacity="0.25"></line></g></g></g><g><g><line x1="0" y1="161.53846153846155" x2="289.15625" y2="161.53846153846155" fill="rgb(0, 0, 0)" stroke="rgb(153, 153, 153)" stroke-width="1.5px"></line></g></g><g><g><line x1="24.096354166666664" y1="0" x2="24.096354166666664" y2="175" fill="rgb(0, 0, 0)" stroke="rgb(153, 153, 153)" stroke-width="1.5px"></line></g></g><g><g><g><g><g><path stroke="rgb(255, 112, 67)" stroke-width="2px" d="M24.096354166666664,154.8076923076923L24.337317708333334,151.86298076923077L24.578281250000003,153.02197802197804L24.819244791666666,152.60534502262445L25.060208333333335,153.56056157582876L25.301171874999998,154.3662340948525L25.542135416666667,154.82488750944594L25.783098958333333,154.54406186709267L26.0240625,154.10664434404868L26.26502604166667,154.3887694320285L26.50598958333333,151.3144156866455L26.746953125,151.09586598454857L26.987916666666667,150.69545816879435L27.228880208333333,151.53331609702298L27.46984375,150.68882335963985L27.71080729166667,151.52891563043136L27.95177083333333,152.03281928769943L28.192734375,152.3351068883199L28.433697916666667,153.3242013275019L28.674661458333333,148.26356654090603L28.915625000000002,148.18890751752153L29.156588541666665,149.75951902932312L29.397552083333334,146.12491348324616L29.638515624999997,148.2518812452551L29.879479166666666,148.72036084828486L30.120442708333336,147.65529161523432L30.361406249999998,150.78548586517195L30.602369791666668,149.43282914998298L30.843333333333334,152.12123694208967L31.084296875,152.38812683964082L31.32526041666667,153.0867223502954L31.56622395833333,151.62126406277713L31.8071875,152.08814307534527L32.04815104166667,151.82980891472866L32.28911458333333,151.40557764923668L32.530078125,152.76642352665527L32.77104166666666,150.08293102246287L33.012005208333335,149.011297071037L33.25296875,151.32985517086468L33.49393229166667,147.0671438660514L33.73489583333333,147.47105555072403L33.975859375,147.1749410225996L34.216822916666665,149.42034922959272L34.45778645833334,146.19067107565766L34.69875,148.29132572253602L34.93971354166667,150.8978723567611L35.180677083333336,151.1156464909879L35.421640625,152.05400327922916L35.66260416666667,151.5400942752229L35.903567708333334,148.5394411804941L36.14453125,149.70058778522517L36.385494791666666,150.66650651729177L36.62645833333334,152.05375006422364L36.867421875,151.809173115457L37.108385416666664,152.47011925389L37.34934895833334,146.6743792446395L37.5903125,148.85078139293802L37.83127604166666,147.4643149896088L38.07223958333333,145.5555120706882L38.313203125,145.75638416548983L38.55416666666667,149.37690742237095L38.79513020833333,151.01075983803798L39.03609375,147.1449174412843L39.277057291666665,146.17156584938596L39.51802083333333,145.31832412501618L39.758984375000004,143.72945601347124L39.99994791666667,148.16075053115966L40.24091145833333,148.93491185715735L40.481875,150.74556249890978L40.72283854166667,151.29349134549972L40.963802083333334,150.27609480729984L41.20476562499999,148.31950303822606L41.445729166666666,150.376317207551L41.68669270833333,149.7257903245306L41.92765625,150.6816280408722L42.16861979166667,151.25513067067718L42.40958333333333,152.40692455625245L42.650546874999996,151.7518470414438L42.89151041666667,150.2818774556355L43.132473958333335,146.1691264733813L43.3734375,146.39378357633646L43.61440104166667,144.37473168426342L43.85536458333333,145.04791593363498L44.096328125,148.1441341755656L44.337291666666665,148.38648050533936L44.57825520833334,150.68573445704976L44.81921875,150.71913298192217L45.06018229166666,152.35455671223022L45.30114583333334,153.33581095041504L45.542109375,153.11687118563364L45.78307291666666,150.2931996344571L46.024036458333335,151.0220736268281L46.265,152.5363210991738L46.50596354166667,138.90640804411964L46.74692708333333,138.80538328801026L46.987890625,144.66784535742153L47.228854166666665,148.4545533682991L47.46981770833333,148.30350125174868L47.710781250000004,135.55902382797228L47.95174479166667,142.1815681429372L48.19270833333333,145.61663319345465L48.433671875,144.9853645314574L48.67463541666667,145.14506487272058L48.915598958333334,140.66396200055541L49.15656250000001,146.0522233541794L49.397526041666666,144.43902632019996L49.63848958333333,140.50956963827383L49.879453125,145.69035716757966L50.12041666666667,147.9911373774709L50.36138020833333,149.64083627263636L50.602343749999996,151.70757868665876L50.84330729166667,152.40916259661063L51.084270833333335,150.94549755796638L51.325234375,152.75960622708752L51.56619791666667,151.1557637362525L51.80716145833333,153.15499670328995L52.048125,153.54684417582013L52.28908854166667,153.51272189010746L52.53005208333334,152.68455621098755L52.771015625,152.72611834197713L53.01197916666666,149.78951715903244L53.252942708333336,151.5275564492656L53.49390625,139.37807233109783L53.73486979166666,137.74222801404332L53.975833333333334,142.9530291161183L54.216796875,147.96412516197867L54.457760416666666,145.8553981741103L54.69872395833334,148.89785428908155L54.9396875,151.26178949652586L55.180651041666664,149.4493813902232L55.42161458333334,145.13116729567238L55.662578125,143.3479311466342L55.90354166666666,145.23952791874976L56.14450520833333,144.75910136663447L56.38546875,140.97084543536528L56.62643229166667,146.5055841842961L56.86739583333333,149.01873512596228L57.108359375,148.6420103063466L57.349322916666665,148.14674464534642L57.59028645833333,148.92650832566937L57.831250000000004,146.43282807232472L58.07221354166667,149.78277376647173L58.31317708333333,151.25427964449844L58.554140625,151.06026009439137L58.79510416666667,146.36692528740406L59.036067708333334,146.7816936339809L59.27703124999999,148.37670848808085L59.517994791666666,147.7183327851562L59.75895833333333,146.5156150557091L59.999921875,146.3324459565024L60.24088541666667,144.8763906508245L60.48184895833333,146.15660362126394L60.722812499999996,148.54011601891222L60.96377604166667,151.04714653442426L61.204739583333335,147.16674945911606L61.445703125,149.9538958293158L61.68666666666667,148.12618365143564L61.92763020833333,149.45263326778445L62.16859375,148.9023491914399L62.409557291666665,148.84140951486395L62.65052083333334,146.11253801661067L62.891484375,149.59059973304332L63.13244791666666,151.9466675321337L63.37341145833334,146.09107744235715L63.614375,146.61618492695274L63.85533854166666,149.08509557155625L64.09630208333334,149.75874965062604L64.337265625,145.85524979037564L64.57822916666666,147.8208421819177L64.81919270833333,147.92327453991984L65.06015625,144.75396472395192L65.30111979166666,146.89084037283268L65.54208333333332,145.74988883908424L65.783046875,146.94993330345054L66.02401041666667,148.20842152053186L66.26497395833333,148.96351445078065L66.5059375,150.493493285853L66.74690104166666,149.25763443305027L66.98786458333333,151.74688835213786L67.228828125,151.89428685743655L67.46979166666667,133.13657211446193L67.71075520833334,136.95886634560023L67.95171875,135.48301211505245L68.19268229166667,142.67442265364687L68.43364583333333,145.37388436141887L68.674609375,147.53202292454364L68.91557291666668,138.59613683164926L69.15653645833333,145.34998979129725L69.3975,135.40230156708606L69.63846354166667,139.39522709409778L69.87942708333334,139.90636702568943L70.120390625,144.7899740615675L70.36135416666667,147.18167674463282L70.60231770833333,140.27054450831815L70.84328125,145.5469420896063L71.08424479166666,142.2512421768407L71.32520833333334,141.6199760753352L71.566171875,144.4719856452011L71.80713541666667,148.33703754096683L72.04809895833334,149.84837637073394L72.2890625,145.90902582244036L72.53002604166667,145.16080010884883L72.77098958333333,143.0964800653093L73.011953125,143.20404188533942L73.25291666666668,144.61473282351136L73.49388020833332,145.99960892487604L73.73484375,146.02284227800254L73.97580729166667,142.53678228987843L74.21677083333333,142.86822322008092L74.457734375,138.49016470127933L74.69869791666667,138.01717574384452L74.93966145833333,143.3872285232298L75.180625,145.53233711393787L75.42158854166667,133.0886330375935L75.66255208333332,139.3531798225561L75.903515625,144.72729250891825L76.14447916666666,148.7594524284279L76.38544270833333,149.0249022262875L76.62640625,149.45340287423403L76.86736979166666,148.6335801860789L77.10833333333333,149.7570711885704L77.34929687500001,147.20039655929608L77.59026041666667,145.93562255096228L77.83122395833334,140.06137353057736L78.0721875,112.57528565680795L78.31315104166666,124.08363293254632L78.55411458333333,136.3732566826047L78.795078125,128.13164631725516L79.03604166666666,135.03283394419924L79.27700520833334,141.32739267421186L79.51796875000001,146.45028175837328L79.75893229166667,144.4086305934855L79.99989583333334,138.06825527916823L80.24085937500001,140.72556855211633L80.48182291666666,142.8584180543467L80.72278645833333,139.2919739095311L80.96375,139.8444151149494L81.20471354166666,143.1374182997389L81.44567708333334,137.30552790292026L81.686640625,140.26793212636755L81.92760416666667,140.69922081428206L82.16856770833334,142.5733786424154L82.40953124999999,137.5055656469877L82.65049479166666,140.11872400357723L82.89145833333333,141.68661901753097L83.13242187499999,129.4350483335955L83.37338541666666,137.9687213078496L83.61434895833334,130.16584816932516L83.8553125,110.1379704400566L84.09627604166667,126.12124380249551L84.33723958333334,132.48043858918962L84.578203125,138.18057084582145L84.81916666666666,140.5237271228775L85.06013020833333,143.54500550449575L85.30109374999999,141.05008022577434L85.54205729166667,145.47620198161846L85.78302083333334,147.05495195820185L86.023984375,136.96374040569034L86.26494791666667,136.29362885879883L86.50591145833334,139.93002346912544L86.746875,143.9964756199368L86.98783854166668,141.59019306426978L87.22880208333333,137.72334660779262L87.469765625,120.32631565698328L87.71072916666667,130.61886631726688L87.95169270833333,134.90978132882168L88.19265625,142.06125341267762L88.43361979166667,139.62136743222197L88.67458333333333,132.50358969010242L88.915546875,130.11753842944606L89.15651041666668,131.6474461345907L89.39747395833332,136.60385229613905L89.6384375,144.1546190699911L89.87940104166667,147.06969451891777L90.12036458333333,133.47258594211988L90.361328125,136.62201310373348L90.60229166666667,139.85782324685547L90.84325520833333,142.87623240965175L91.08421875,144.95650867656028L91.32518229166668,145.66621289824386L91.56614583333332,140.43818927740784L91.807109375,142.14752895106008L92.04807291666667,146.40390198602066L92.28903645833333,144.6500334993047L92.53,137.1361739457367L92.77096354166667,139.89708898282663L93.01192708333333,141.2844072358498L93.252890625,142.11679818766373L93.49385416666667,132.38546352798286L93.73481770833332,113.35435503986663L93.97578125,125.6279976393046L94.21674479166666,129.2229524297366L94.45770833333333,131.11069453476506L94.698671875,133.85872441316673L94.93963541666666,140.62292695559233L95.18059895833333,137.6814484810477L95.42156250000001,142.10886908862864L95.66252604166667,143.6883983762541L95.90348958333334,143.28996210267556L96.144453125,135.2432080308361L96.38541666666666,138.4920786646555L96.62638020833333,126.7106318141779L96.86734375,137.6802252423529L97.10830729166666,135.37736591464252L97.34927083333334,138.0341118564778L97.59023437500001,143.66662096004052L97.83119791666667,131.16151103756278L98.07216145833334,138.19690662253765L98.31312500000001,138.9181439735226L98.55408854166666,138.27396330719048L98.79505208333333,141.11822413816046L99.036015625,142.55554986751164L99.27697916666666,145.03332992050701L99.51794270833334,138.98153641384266L99.75890625,134.54276800215175L99.99986979166667,141.03335310898336L100.24083333333334,136.04308878846695L100.48179687499999,141.39508404231094L100.72276041666666,139.22166581000195L100.96372395833333,138.9945379475396L101.20468749999999,139.39672276852377L101.44565104166666,139.3688028918835L101.68661458333334,141.5058971197455L101.927578125,133.36507673338573L102.16854166666667,136.28827680926221L102.40950520833334,133.73450454709578L102.65046875,124.39454888210362L102.89143229166666,131.4444216369545L103.13239583333333,131.63588375140344L103.37335937499999,134.17383794314978L103.61432291666667,139.19661045819757L103.85528645833334,125.24873550568776L104.09625,129.8030874572588L104.33721354166667,112.34339093589375L104.57817708333334,108.32911148461318L104.819140625,108.074389967691L105.06010416666668,114.6523262883069L105.30106770833333,120.48370346529184L105.54203125,125.05945284840588L105.78299479166667,123.49721017058198L106.02395833333333,135.2137107177338L106.264921875,140.08976489217875L106.50588541666667,139.24616662761494L106.74684895833333,142.7784692073382L106.9878125,132.244004601326L107.22877604166668,139.6540950684879L107.46973958333332,138.71553396416968L107.710703125,137.88316653234796L107.95166666666667,141.1529768424857L108.19263020833333,137.19178610549142L108.43359375,134.00737935560255L108.67455729166667,126.44288915182307L108.91552083333333,134.82727195263232L109.156484375,123.97328624850245L109.39744791666668,109.65320251833226L109.63841145833332,125.56115228023012L109.879375,122.99053752198422L110.12033854166667,124.40970712857514L110.36130208333333,118.79967043099126L110.602265625,128.3567253355178L110.84322916666667,135.7063428936184L111.08419270833333,115.61611342847873L111.32515625,117.83120651862569L111.56611979166667,103.81410852656003L111.80708333333332,116.9423112697822L112.048046875,117.01154060802315L112.28901041666666,128.09153974942927L112.52997395833333,123.9703084650422L112.7709375,132.2668004636407L113.01190104166666,124.59084950895367L113.25286458333333,121.60066355152605L113.49382812500001,132.46039813091562L113.73479166666667,114.74546964778015L113.97575520833334,126.73189717328347L114.21671875,130.69298445781624L114.45768229166666,135.49271375161283L114.69864583333333,121.41101286635231L114.939609375,131.53891541211908L115.18057291666666,131.96181078573298L115.42153645833334,138.6770864714398L115.66250000000001,143.5139441905562L115.90346354166667,143.45452036048755L116.14442708333334,139.11117375475408L116.38539062500001,138.9282427143909L116.62635416666666,117.818484090173L116.86731770833333,112.96032122333456L117.10828125,122.43003888784689L117.34924479166666,93.38110025578506L117.59020833333334,107.45173707654797L117.831171875,116.70181147669801L118.07213541666667,123.59800996294187L118.31309895833334,115.88957520853437L118.55406249999999,113.68759127896675L118.79502604166666,122.32793938276468L119.03598958333333,132.08907132196651L119.27695312499999,130.40728894702605L119.51791666666666,137.47514259898486L119.75888020833334,134.9850855593909L119.99984375,129.45258979717303L120.24080729166667,123.44078464753457L120.48177083333334,105.29524001928998L120.722734375,92.25406708849705L120.96369791666666,113.23705563771362L121.20466145833333,117.7499256903205L121.44562499999999,110.76534002957692L121.68658854166667,106.57458863313077L121.92755208333334,116.98321471834L122.168515625,111.65146729254245L122.40947916666667,94.18318806783316L122.65044270833334,93.66375899454606L122.89140625,103.31364001211226L123.13236979166668,74.10356862265198L123.37333333333333,75.42367963512966L123.614296875,80.79266931953933L123.85526041666667,94.7832938994159L124.09622395833333,115.831514801188L124.3371875,119.30660118840511L124.57815104166667,114.9301145591969L124.81911458333333,124.41960719705662L125.060078125,115.84407201054165L125.30104166666668,108.006443206325L125.54200520833332,119.45771207764115L125.78296875,126.05924263120008L126.02393229166667,132.1740071171816L126.26489583333333,141.49671196261664L126.505859375,132.28264256218537L126.74682291666667,125.94650861423429L126.98778645833333,100.60636670700212L127.22875,109.09458925497049L127.46971354166668,120.11059970682845L127.71067708333332,110.29712905486629L127.951640625,101.71673897138132L128.19260416666668,119.99158184436726L128.43356770833333,115.07187218354345L128.67453125,124.7738925408953L128.91549479166667,134.90279706299873L129.15645833333332,110.82629362241461L129.397421875,121.95731463498723L129.63838541666667,107.90515801176156L129.87934895833334,99.2046332685954L130.1203125,107.71508765346493L130.36127604166666,120.09059105361742L130.60223958333333,128.86204693986278L130.843203125,119.8556897023792L131.08416666666665,112.83649074450443L131.32513020833332,124.50958675439496L131.56609375,122.09036743725238L131.80705729166667,123.60037430850527L132.04802083333334,132.3140707389493L132.288984375,114.38844244336958L132.52994791666666,104.70998854294483L132.77091145833333,97.0183008180746L133.011875,82.17251895238321L133.25283854166665,95.34197290989147L133.49380208333332,102.16672220747333L133.734765625,95.49234101679168L133.97572916666667,99.56463537930577L134.21669270833334,114.6618581506604L134.45765625,97.066345659627L134.69861979166666,84.89365354962236L134.93958333333333,87.28234597592727L135.180546875,90.86940758555636L135.42151041666668,114.56010608979537L135.66247395833332,107.23606365387722L135.9034375,83.45702280771094L136.14440104166667,99.07421368462656L136.38536458333334,120.55991282616056L136.626328125,120.25902461877327L136.86729166666666,99.61695323280242L137.10825520833333,102.84709501660453L137.34921875,83.78518008688579L137.59018229166668,75.04033882136224L137.83114583333335,81.90881867743272L138.072109375,106.76067582184426L138.31307291666667,95.8256362623373L138.55403645833334,102.18768944971009L138.795,101.15876751597989L139.03596354166666,99.4644912788187L139.27692708333333,97.10177169036815L139.517890625,114.26106301422088L139.75885416666668,116.21048396237867L139.99981770833335,113.07244422358106L140.24078125,108.76654345722554L140.48174479166667,114.5291568435661L140.72270833333334,87.29441718306275L140.963671875,98.14588107906842L141.20463541666666,76.92599018590258L141.44559895833333,81.96328641923387L141.6865625,101.94720262077108L141.92752604166668,103.70678311092419L142.16848958333333,93.45483909732376L142.409453125,67.38059576608657L142.65041666666667,89.69758822888271L142.89138020833332,87.20316832194501L143.13234375,87.5911317623978L143.37330729166666,65.74698674974636L143.61427083333334,66.37126897292475L143.855234375,67.2842998452933L144.09619791666668,85.06288759948367L144.33716145833333,62.88388640584405L144.578125,73.8072549204295L144.81908854166667,93.2843529522577L145.06005208333335,113.04753484827769L145.301015625,100.40544398588969L145.54197916666666,71.01249716076458L145.78294270833334,63.87672906568953L146.02390625,92.44142205479832L146.26486979166668,106.88793015595593L146.50583333333336,95.90198886280433L146.74679687499997,103.8488856253749L146.98776041666665,93.80933137522496L147.22872395833332,89.93944497898111L147.4696875,87.61751314123482L147.71065104166667,91.07050788474089L147.95161458333334,82.64230473084454L148.19257812499998,79.73922899235288L148.43354166666666,106.26661431848865L148.67450520833333,121.91381474493934L148.91546875,107.60982730850206L149.15643229166668,112.75820407740893L149.39739583333335,100.77030706182998L149.638359375,88.73141500632876L149.87932291666667,100.08500284995111L150.12028645833334,78.08946324843221L150.36125,65.4306010259824L150.60221354166669,54.066052923281745L150.84317708333333,61.7857856001229L151.084140625,63.99454828315068L151.32510416666665,49.165959739121185L151.56606770833332,64.76880661270349L151.80703125,87.86128396762209L152.04799479166667,105.7552319190348L152.2889583333333,100.33775453603626L152.52992187499999,78.2411142600833L152.77088541666666,96.4831300945115L153.01184895833333,107.69757036439921L153.2528125,91.81084991094721L153.49377604166668,82.00958686964525L153.73473958333332,87.43652135255638L153.975703125,88.26960511922616L154.21666666666667,90.38483999461259L154.45763020833334,65.00013476599833L154.69859375000001,59.461619321137455L154.9395572916667,69.33081774652864L155.18052083333333,90.86772141714795L155.421484375,113.21294054259647L155.66244791666668,113.1585335563271L155.90341145833335,78.66435090302703L156.144375,57.96784131104698L156.38533854166667,47.43455094047436L156.62630208333331,39.229961333515384L156.867265625,61.76874603087846L157.10822916666666,91.17663223391169L157.34919270833333,75.97521010957777L157.59015625,73.85435683497745L157.83111979166665,78.50492179329417L158.07208333333332,78.06449153751495L158.313046875,69.72331030712436L158.55401041666667,68.48783233812077L158.79497395833334,51.86193017210326L159.03593750000002,53.463311949415804L159.27690104166666,69.50106409272638L159.51786458333333,71.58525384025121L159.758828125,61.258844611843024L159.99979166666668,61.25530676710582L160.24075520833335,76.06087636795579L160.48171875000003,74.71344889769655L160.72268229166664,60.98191549246408L160.96364583333332,57.858380064709216L161.204609375,67.83041265421012L161.44557291666666,51.46747836175685L161.68653645833334,86.88048701705412L161.9275,89.28213836407863L162.16846354166665,111.1846676338318L162.40942708333333,77.48003134952985L162.650390625,62.37263419433327L162.89135416666667,67.57742667044612L163.13231770833335,67.4695329253446L163.37328125,85.17402744751445L163.61424479166666,84.75826262235482L163.85520833333334,83.70111141956676L164.096171875,97.8745130055862L164.33713541666668,69.49393857258248L164.57809895833336,52.465593912780264L164.81906249999997,57.32551019382199L165.06002604166665,78.54915227013934L165.30098958333332,78.62949136208361L165.541953125,57.94692558648095L165.78291666666667,86.1912322749655L166.02388020833334,70.8301239803639L166.26484374999998,90.15192054206449L166.50580729166666,85.86038309446947L166.74677083333333,84.36238370283554L166.987734375,105.00204560631671L167.22869791666668,111.46276582532847L167.46966145833335,83.56996718750477L167.710625,74.91121108173364L167.95158854166667,62.17749587980942L168.19255208333334,48.07572829711644L168.433515625,70.5762062090391L168.67447916666669,53.11495449465422L168.91544270833333,62.02281885063868L169.15640625,67.63676823346013L169.39736979166665,91.73590709392224L169.63833333333332,111.31077502558412L169.879296875,95.05569578458123L170.12026041666667,103.8795713169026L170.3612239583333,110.52005048244925L170.60218749999999,91.08126105870032L170.84315104166666,98.80260278906634L171.08411458333333,98.05079244267058L171.325078125,94.63816777329464L171.56604166666668,78.85982374089987L171.80700520833332,58.08512501377069L172.04796875,45.620305777493186L172.28893229166667,38.14141423572669L172.52989583333334,42.26946392605137L172.77085937500001,36.13090912486161L173.0118229166667,47.793930090301586L173.25278645833333,39.44558882341172L173.49375,34.436584063277806L173.73471354166668,54.046565822582075L173.97567708333335,79.54332410893386L174.216640625,73.84137908074493L174.45760416666667,55.07405821767771L174.69856770833331,49.46751185368355L174.93953125,40.44973788144088L175.18049479166666,52.269842728864546L175.42145833333333,44.01575179116487L175.662421875,50.101758767006636L175.90338541666665,69.36874756789628L176.14434895833332,82.54432546381469L176.3853125,83.98813373982728L176.62627604166667,61.16211101312714L176.86723958333334,67.65880506941475L177.10820312500002,71.28759073395652L177.34916666666666,63.23409290191237L177.59013020833333,51.67122497191665L177.83109375,64.65658113699612L178.07205729166668,93.7170256052746L178.31302083333335,93.92252305547245L178.55398437500003,81.12274460251425L178.79494791666664,68.86595445381623L179.03591145833332,79.55034190305896L179.276875,73.57635898798924L179.51783854166666,67.83812308510123L179.75880208333334,70.0490276972146L179.999765625,66.52941661832874L180.24072916666665,82.18688074022802L180.48169270833333,77.3121284441368L180.72265625,77.34881552802055L180.96361979166667,57.17852008604311L181.20458333333335,85.19172743624124L181.445546875,77.23042107712936L181.68651041666666,78.10748341550837L181.92747395833334,89.9414131262281L182.1684375,91.92638633727532L182.40940104166668,71.84813949467288L182.65036458333336,70.57042215834217L182.89132812499997,101.30379175654376L183.13229166666665,109.78227505392627L183.37325520833332,87.4078265708173L183.61421875,66.98315748095192L183.85518229166667,61.99758679626346L184.09614583333334,74.08316746237345L184.33710937499998,60.06528509280869L184.57807291666666,48.15455567106983L184.81903645833333,47.2004257103342L185.06,53.358716964662065L185.30096354166668,42.78446094802801L185.54192708333335,48.2860611842014L185.782890625,39.74086747975162L186.02385416666667,51.84452048785098L186.26481770833334,49.14517383117212L186.50578125,52.64095045254941L186.74674479166669,65.77687796383734L186.98770833333333,51.31228062445626L187.228671875,41.556599143904506L187.46963541666665,74.74165179403502L187.71059895833332,60.99883723026716L187.9515625,47.36853310739108L188.19252604166667,39.19035063366544L188.4334895833333,34.283441149430026L188.67445312499999,42.108526228119565L188.91541666666666,48.95742342917945L189.15638020833333,88.33599251904613L189.39734375,63.77082628065843L189.63830729166668,52.800957306856596L189.87927083333332,52.14211284565243L190.120234375,42.05449847662222L190.36119791666667,40.848083701357965L190.60216145833334,35.278080990045545L190.84312500000001,38.666848594027314L191.0840885416667,39.6231860794933L191.32505208333333,42.35083472461905L191.566015625,36.17973160400222L191.80697916666668,63.43860819317055L192.04794270833335,48.8323956851331L192.28890625,45.453283564926004L192.52986979166667,46.656585523571L192.77083333333331,52.49395131414259L193.011796875,72.41944771156248L193.25276041666666,70.10551478078366L193.49372395833333,58.21715502231634L193.7346875,57.27644685954366L193.97565104166665,89.01971426957235L194.21661458333332,74.95029010020495L194.457578125,74.3163279062768L194.69854166666667,93.85902751299685L194.93950520833334,103.43080112318273L195.18046875000002,86.8277114431404L195.42143229166666,95.44278071203807L195.66239583333333,100.34259150414593L195.903359375,86.32093951787219L196.14432291666668,94.6002560184156L196.38528645833335,71.02938438028015L196.62625000000003,53.38686139739886L196.86721354166664,50.070578376900855L197.10817708333332,57.77311625690975L197.349140625,45.43310052337661L197.59010416666666,50.41370646787213L197.83106770833334,46.402070034569455L198.07203125,38.61047278997245L198.31299479166665,33.93551444321423L198.55395833333333,42.976693281313146L198.794921875,44.09370827648019L199.03588541666667,37.225455735118885L199.27684895833335,33.1045042103021L199.5178125,30.63193329541205L199.75877604166666,29.14839074647801L199.99973958333334,28.25826521711757L200.240703125,27.724189899501305L200.48166666666668,27.40374470893156L200.72263020833336,54.13455451766662L200.96359374999997,43.24996347983073L201.20455729166665,36.71920885712921L201.44552083333332,48.954602237354436L201.686484375,44.44968441933573L201.92744791666667,43.09288757467837L202.16841145833334,51.163424852499325L202.40937499999998,41.46728568073037L202.65033854166666,35.649602177669L202.89130208333333,36.46668438352449L203.132265625,72.49539524549931L203.37322916666668,96.26646791653037L203.61419270833335,78.49064998068744L203.85515625,70.51746691148938L204.09611979166667,53.0797109161244L204.33708333333334,77.88628808813618L204.578046875,57.501003622112485L204.81901041666669,56.3082944809598L205.05997395833333,44.554207457806655L205.3009375,52.578678320837824L205.54190104166665,59.277976223271935L205.78286458333332,46.33601650319394L206.023828125,50.68622528653175L206.26479166666667,56.25788901807288L206.5057552083333,47.2162718723822L206.74671874999999,49.59899389266008L206.98768229166666,48.06708864328837L207.22864583333333,54.95563780135763L207.469609375,43.74261345004536L207.71057291666668,55.05326037771954L207.95153645833332,43.8011869958625L208.1925,42.43455835136365L208.43346354166667,45.92227347235666L208.67442708333334,48.014902544952456L208.91539062500001,42.539710757740686L209.1563541666667,47.60074953156747L209.39731770833333,50.637372795863556L209.63828125,49.228577523671994L209.87924479166668,60.229454206510894L210.12020833333335,51.75305713929117L210.361171875,55.55183428357469L210.60213541666667,58.36956210860636L210.84309895833331,60.59866034208688L211.0840625,64.62842697448289L211.32502604166666,68.66167156930514L211.56598958333333,72.96623371081385L211.806953125,70.97204791879601L212.04791666666665,71.66015182820067L212.28888020833332,67.76532186615117L212.52984375,57.889962350459925L212.77080729166667,63.00320817950672L213.01177083333334,71.1865402923194L213.25273437500002,69.3657703292378L213.49369791666666,71.23484681292732L213.73466145833333,62.9332157800641L213.975625,60.10608331419229L214.21658854166668,53.29441921928459L214.45755208333335,50.284343839263066L214.69851562500003,47.939837072788606L214.93947916666664,60.80236378213469L215.18044270833332,69.05834134620389L215.42140625,52.20423557695311L215.66236979166666,44.78407980771033L215.90333333333334,37.639678653856976L216.144296875,44.66073026923727L216.38526041666665,41.873361238465435L216.62622395833333,35.893247512310026L216.8671875,48.728256199693725L217.10815104166667,40.006184489046994L217.34911458333335,58.19601838573589L217.590078125,45.686841800672305L217.83104166666666,38.18133584963416L218.07200520833334,60.3318784328574L218.31296875,60.429896290483676L218.55393229166668,48.6425531589056L218.79489583333336,39.95476266457412L219.03585937499997,51.434396060282936L219.27682291666665,51.05294532847745L219.51778645833332,41.40099796631725L219.75875,35.609829549021136L219.99971354166667,32.135128498643454L220.24067708333334,37.858000176109144L220.48164062499998,57.445569336434716L220.72260416666666,45.23657237109159L220.96356770833333,37.91117419188575L221.20453125,33.51593528436222L221.44549479166668,31.955715016771176L221.68645833333335,29.94265977929349L221.927421875,59.42713432911456L222.16838541666667,46.425511366699496L222.40934895833334,38.62453758925047L222.6503125,43.36703024585798L222.89127604166669,36.789448916745556L223.13223958333333,32.84290011927812L223.373203125,30.474970840797663L223.61416666666665,29.054213273709376L223.85513020833332,28.2017587334564L224.09609375,27.690286009304614L224.33705729166667,27.38340237481355L224.5780208333333,27.19927219411891L224.81898437499999,27.088794085702116L225.05994791666666,27.022507220652027L225.30091145833333,26.98273510162199L225.541875,26.958871830203957L225.78283854166668,26.944553867353164L226.02380208333332,35.82057847425806L226.264765625,52.723116315324056L226.50572916666667,42.40310055842522L226.74669270833334,36.21109110428589L226.98765625000001,42.9958854318023L227.2286197916667,36.56676202831216L227.46958333333333,32.70928798621807L227.710546875,30.394803560961616L227.95151041666668,29.006112905807733L228.19247395833335,33.01905235886927L228.4334375,30.58066218455234L228.67440104166667,29.11762807996218L228.91536458333331,33.62442300182348L229.156328125,30.943884570324844L229.39729166666666,29.335561511425674L229.63825520833333,38.33210613762464L229.87921875,36.99926368257478L230.12018229166665,32.96878897877565L230.36114583333332,30.550504156496153L230.602109375,29.099533263128457L230.84307291666667,28.22895072710784L231.08403645833334,27.706601205495463L231.32500000000002,38.970114569451134L231.56596354166666,35.766684126286066L231.80692708333333,32.2292412450024L232.047890625,30.106775516232204L232.28885416666668,28.8332960789701L232.52981770833335,28.069208416612828L232.77078125000003,27.610755819198467L233.01174479166664,27.335684260749858L233.25270833333332,27.17064132568069L233.493671875,27.071615564639192L233.73463541666666,27.01220010801429L233.97559895833334,26.976550834039358L234.2165625,26.955161269654393L234.45752604166665,26.942327531023434L234.69848958333333,26.934627287844826L234.939453125,26.930007141937654L235.18041666666667,49.00415813131645L235.42138020833335,40.17172564802066L235.66234375,34.87226615804317L235.90330729166666,31.692590464056664L236.14427083333334,35.707861970741696L236.385234375,32.19394795167578L236.62619791666668,30.085599540236238L236.86716145833336,32.05135972414174L237.10812499999997,30.000046603715802L237.34908854166665,28.76925873146025L237.59005208333332,28.03078600810693L237.831015625,34.318471604864165L238.07197916666667,36.47569834753388L238.31294270833334,32.6546497777511L238.55390624999998,30.362020635881432L238.79486979166666,28.986443150759644L239.03583333333333,37.31494281353271L239.276796875,38.81204261119657L239.51776041666668,34.05645633594871L239.75872395833335,31.203104570799987L239.9996875,36.760324280941525L240.24065104166667,61.363886876257226L240.48161458333334,47.58756289498511L240.722578125,39.32176850622183L240.96354166666669,34.362291872963866L241.20450520833333,31.3866058930091L241.44546875,29.601194305036238L241.68643229166665,28.529947352252524L241.92739583333332,27.887199180582293L242.168359375,28.847704123733994L242.40932291666667,28.07785324347116L242.6502864583333,27.61594271531349L242.89124999999999,27.33879639841888L243.13221354166666,27.17250860828212L243.37317708333333,27.072735934200022L243.614140625,27.012872329750778L243.85510416666668,40.16926185938893L244.09606770833332,42.678480192556414L244.33703125,36.376318884764636L244.57799479166667,32.595022100089544L244.81895833333334,30.32624402928449L245.05992187500001,28.964977186801455L245.3008854166667,28.14821708131163L245.54184895833333,27.658161018017747L245.7828125,32.21028122619529L246.02377604166668,30.095399504947938L246.26473958333335,28.826470472199535L246.505703125,28.065113052550487L246.74666666666667,27.60829860076107L246.98763020833331,27.33420992968741L247.22859375,27.16975672704322L247.46955729166666,27.071084805456703L247.71052083333333,27.011881652504798L247.951484375,33.43789822227211L248.19244791666665,40.52427739490172L248.43341145833332,39.122258744633356L248.674375,34.242586016010776L248.91533854166667,31.314782378837247L249.15630208333334,35.75040788884082L249.39726562500002,41.64255242561218L249.63822916666666,35.75476222459808L249.87919270833333,32.22208810398963L250.12015625,35.21786824700915L250.36111979166668,34.3230286405132L250.60208333333335,31.363047953538686L250.84304687500003,29.587059541353984L251.08401041666664,41.17531264788931L251.32497395833332,35.47441835796436L251.5659375,32.05388178400939L251.80690104166666,30.001559839636403L252.04786458333334,28.7701666730126L252.288828125,28.031330773038327L252.52979166666665,30.011106156130694L252.77075520833333,42.77589446290919L253.01171875,42.08861360082245L253.25268229166667,40.33009123741655L253.49364583333335,39.00574705014223L253.734609375,34.17267899931612L253.97557291666666,43.65745355343582L254.21653645833334,36.96370290129226L254.4575,35.37052943308304L254.69846354166668,31.991548429080595L254.93942708333336,37.77185213437144L255.18039062499997,33.432342049853624L255.42135416666665,43.4824821529891L255.66231770833332,37.39718159948575L255.90328125,34.55369357507609L256.14424479166667,31.50144691427642L256.38520833333337,43.939329687027396L256.626171875,37.132828581447214L256.86713541666666,33.04892791809909L257.10809895833336,46.75243367393638L257.3490625,38.82069097359258L257.5900260416667,34.06164535338631L257.83098958333335,31.20621798126256L258.071953125,44.83911540414215L258.31291666666664,37.67270001171607L258.55388020833334,33.372850776260414L258.79484375,30.792941234987037L259.0358072916667,29.244995510222996L259.27677083333333,36.93161269074917L259.517734375,32.928198383680275L259.7586979166667,30.52614979943894L259.9996614583333,29.08492064889414L260.240625,40.0663370047211L260.48158854166667,48.27057143360191L260.7225520833333,55.885419783238056L260.963515625,44.300482639173616L261.20447916666666,37.349520352734935L261.44544270833336,33.17894298087173L261.68640625,40.09967348083072L261.9273697916667,34.829034857729205L262.1683333333333,40.2820362992529L262.409296875,34.9384525487825L262.65026041666664,31.732302298500265L262.89122395833334,29.80861214833092L263.1321875,58.53901344284472L263.3731510416667,45.8926388349376L263.61411458333333,46.65096791634716L263.855078125,38.75981151903908L264.0960416666667,34.025117680654226L264.3370052083333,31.184301377623306L264.57796875,29.479811595804758L264.81893229166667,32.226348495944386" style="fill: none;" fill="none"></path></g></g></g></g><g opacity="0.2"><g><g><g><path stroke="rgb(255, 112, 67)" stroke-width="2px" d="M24.096354166666664,154.8076923076923L24.337317708333334,150.09615384615387L24.578281250000003,154.1346153846154L24.819244791666666,152.1153846153846L25.060208333333335,154.8076923076923L25.301171874999998,155.48076923076923L25.542135416666667,155.48076923076923L25.783098958333333,154.1346153846154L26.0240625,153.46153846153845L26.26502604166667,154.8076923076923L26.50598958333333,146.73076923076923L26.746953125,150.76923076923077L26.987916666666667,150.09615384615387L27.228880208333333,152.78846153846155L27.46984375,149.4230769230769L27.71080729166667,152.78846153846155L27.95177083333333,152.78846153846155L28.192734375,152.78846153846155L28.433697916666667,154.8076923076923L28.674661458333333,140.67307692307693L28.915625000000002,148.07692307692307L29.156588541666665,152.1153846153846L29.397552083333334,140.67307692307693L29.638515624999997,151.4423076923077L29.879479166666666,149.4230769230769L30.120442708333336,146.05769230769232L30.361406249999998,155.48076923076923L30.602369791666668,147.40384615384616L30.843333333333334,156.15384615384613L31.084296875,152.78846153846155L31.32526041666667,154.1346153846154L31.56622395833333,149.4230769230769L31.8071875,152.78846153846155L32.04815104166667,151.4423076923077L32.28911458333333,150.76923076923077L32.530078125,154.8076923076923L32.77104166666666,146.05769230769232L33.012005208333335,147.40384615384616L33.25296875,154.8076923076923L33.49393229166667,140.67307692307693L33.73489583333333,148.07692307692307L33.975859375,146.73076923076923L34.216822916666665,152.78846153846155L34.45778645833334,141.34615384615384L34.69875,151.4423076923077L34.93971354166667,154.8076923076923L35.180677083333336,151.4423076923077L35.421640625,153.46153846153845L35.66260416666667,150.76923076923077L35.903567708333334,144.03846153846152L36.14453125,151.4423076923077L36.385494791666666,152.1153846153846L36.62645833333334,154.1346153846154L36.867421875,151.4423076923077L37.108385416666664,153.46153846153845L37.34934895833334,137.98076923076923L37.5903125,152.1153846153846L37.83127604166666,145.3846153846154L38.07223958333333,142.69230769230768L38.313203125,146.05769230769232L38.55416666666667,154.8076923076923L38.79513020833333,153.46153846153845L39.03609375,141.34615384615384L39.277057291666665,144.71153846153845L39.51802083333333,144.03846153846152L39.758984375000004,141.34615384615384L39.99994791666667,154.8076923076923L40.24091145833333,150.09615384615387L40.481875,153.46153846153845L40.72283854166667,152.1153846153846L40.963802083333334,148.75L41.20476562499999,145.3846153846154L41.445729166666666,153.46153846153845L41.68669270833333,148.75L41.92765625,152.1153846153846L42.16861979166667,152.1153846153846L42.40958333333333,154.1346153846154L42.650546874999996,150.76923076923077L42.89151041666667,148.07692307692307L43.132473958333335,140L43.3734375,146.73076923076923L43.61440104166667,141.34615384615384L43.85536458333333,146.05769230769232L44.096328125,152.78846153846155L44.337291666666665,148.75L44.57825520833334,154.1346153846154L44.81921875,150.76923076923077L45.06018229166666,154.8076923076923L45.30114583333334,154.8076923076923L45.542109375,152.78846153846155L45.78307291666666,146.05769230769232L46.024036458333335,152.1153846153846L46.265,154.8076923076923L46.50596354166667,118.46153846153847L46.74692708333333,138.65384615384616L46.987890625,153.46153846153845L47.228854166666665,154.1346153846154L47.46981770833333,148.07692307692307L47.710781250000004,116.44230769230771L47.95174479166667,152.1153846153846L48.19270833333333,150.76923076923077L48.433671875,144.03846153846152L48.67463541666667,145.3846153846154L48.915598958333334,133.94230769230768L49.15656250000001,154.1346153846154L49.397526041666666,142.01923076923077L49.63848958333333,134.6153846153846L49.879453125,153.46153846153845L50.12041666666667,151.4423076923077L50.36138020833333,152.1153846153846L50.602343749999996,154.8076923076923L50.84330729166667,153.46153846153845L51.084270833333335,148.75L51.325234375,155.48076923076923L51.56619791666667,148.75L51.80716145833333,156.15384615384613L52.048125,154.1346153846154L52.28908854166667,153.46153846153845L52.53005208333334,151.4423076923077L52.771015625,152.78846153846155L53.01197916666666,145.3846153846154L53.252942708333336,154.1346153846154L53.49390625,121.15384615384615L53.73486979166666,135.28846153846155L53.975833333333334,150.76923076923077L54.216796875,155.48076923076923L54.457760416666666,142.69230769230768L54.69872395833334,153.46153846153845L54.9396875,154.8076923076923L55.180651041666664,146.73076923076923L55.42161458333334,138.65384615384616L55.662578125,140.67307692307693L55.90354166666666,148.07692307692307L56.14450520833333,144.03846153846152L56.38546875,135.28846153846155L56.62643229166667,154.8076923076923L56.86739583333333,152.78846153846155L57.108359375,148.07692307692307L57.349322916666665,147.40384615384616L57.59028645833333,150.09615384615387L57.831250000000004,142.69230769230768L58.07221354166667,154.8076923076923L58.31317708333333,153.46153846153845L58.554140625,150.76923076923077L58.79510416666667,139.3269230769231L59.036067708333334,147.40384615384616L59.27703124999999,150.76923076923077L59.517994791666666,146.73076923076923L59.75895833333333,144.71153846153845L59.999921875,146.05769230769232L60.24088541666667,142.69230769230768L60.48184895833333,148.07692307692307L60.722812499999996,152.1153846153846L60.96377604166667,154.8076923076923L61.204739583333335,141.34615384615384L61.445703125,154.1346153846154L61.68666666666667,145.3846153846154L61.92763020833333,151.4423076923077L62.16859375,148.07692307692307L62.409557291666665,148.75L62.65052083333334,142.01923076923077L62.891484375,154.8076923076923L63.13244791666666,155.48076923076923L63.37341145833334,137.3076923076923L63.614375,147.40384615384616L63.85533854166666,152.78846153846155L64.09630208333334,150.76923076923077L64.337265625,140L64.57822916666666,150.76923076923077L64.81919270833333,148.07692307692307L65.06015625,140L65.30111979166666,150.09615384615387L65.54208333333332,144.03846153846152L65.783046875,148.75L66.02401041666667,150.09615384615387L66.26497395833333,150.09615384615387L66.5059375,152.78846153846155L66.74690104166666,147.40384615384616L66.98786458333333,155.48076923076923L67.228828125,152.1153846153846L67.46979166666667,105L67.71075520833334,142.69230769230768L67.95171875,133.26923076923077L68.19268229166667,153.46153846153845L68.43364583333333,149.4230769230769L68.674609375,150.76923076923077L68.91557291666668,125.1923076923077L69.15653645833333,155.48076923076923L69.3975,120.48076923076923L69.63846354166667,145.3846153846154L69.87942708333334,140.67307692307693L70.120390625,152.1153846153846L70.36135416666667,150.76923076923077L70.60231770833333,129.90384615384616L70.84328125,153.46153846153845L71.08424479166666,137.3076923076923L71.32520833333334,140.67307692307693L71.566171875,148.75L71.80713541666667,154.1346153846154L72.04809895833334,152.1153846153846L72.2890625,140L72.53002604166667,144.03846153846152L72.77098958333333,140L73.011953125,143.3653846153846L73.25291666666668,146.73076923076923L73.49388020833332,148.07692307692307L73.73484375,146.05769230769232L73.97580729166667,137.3076923076923L74.21677083333333,143.3653846153846L74.457734375,131.92307692307693L74.69869791666667,137.3076923076923L74.93966145833333,151.4423076923077L75.180625,148.75L75.42158854166667,114.42307692307692L75.66255208333332,148.75L75.903515625,152.78846153846155L76.14447916666666,154.8076923076923L76.38544270833333,149.4230769230769L76.62640625,150.09615384615387L76.86736979166666,147.40384615384616L77.10833333333333,151.4423076923077L77.34929687500001,143.3653846153846L77.59026041666667,144.03846153846152L77.83122395833334,131.25L78.0721875,71.34615384615384L78.31315104166666,141.34615384615384L78.55411458333333,154.8076923076923L78.795078125,115.76923076923076L79.03604166666666,145.3846153846154L79.27700520833334,150.76923076923077L79.51796875000001,154.1346153846154L79.75893229166667,141.34615384615384L79.99989583333334,128.55769230769232L80.24085937500001,144.71153846153845L80.48182291666666,146.05769230769232L80.72278645833333,133.94230769230768L80.96375,140.67307692307693L81.20471354166666,148.07692307692307L81.44567708333334,128.55769230769232L81.686640625,144.71153846153845L81.92760416666667,141.34615384615384L82.16856770833334,145.3846153846154L82.40953124999999,129.90384615384616L82.65049479166666,144.03846153846152L82.89145833333333,144.03846153846152L83.13242187499999,111.0576923076923L83.37338541666666,150.76923076923077L83.61434895833334,118.46153846153847L83.8553125,80.09615384615385L84.09627604166667,150.09615384615387L84.33723958333334,142.01923076923077L84.578203125,146.73076923076923L84.81916666666666,144.03846153846152L85.06013020833333,148.07692307692307L85.30109374999999,137.3076923076923L85.54205729166667,152.1153846153846L85.78302083333334,149.4230769230769L86.023984375,121.82692307692307L86.26494791666667,135.28846153846155L86.50591145833334,145.3846153846154L86.746875,150.09615384615387L86.98783854166668,137.98076923076923L87.22880208333333,131.92307692307693L87.469765625,94.23076923076923L87.71072916666667,146.05769230769232L87.95169270833333,141.34615384615384L88.19265625,152.78846153846155L88.43361979166667,135.96153846153845L88.67458333333333,121.82692307692307L88.915546875,126.53846153846153L89.15651041666668,133.94230769230768L89.39747395833332,144.03846153846152L89.6384375,155.48076923076923L89.87940104166667,151.4423076923077L90.12036458333333,113.07692307692307L90.361328125,141.34615384615384L90.60229166666667,144.71153846153845L90.84325520833333,147.40384615384616L91.08421875,148.07692307692307L91.32518229166668,146.73076923076923L91.56614583333332,132.59615384615384L91.807109375,144.71153846153845L92.04807291666667,152.78846153846155L92.28903645833333,142.01923076923077L92.53,125.86538461538461L92.77096354166667,144.03846153846152L93.01192708333333,143.3653846153846L93.252890625,143.3653846153846L93.49385416666667,117.78846153846155L93.73481770833332,84.80769230769232L93.97578125,144.03846153846152L94.21674479166666,134.6153846153846L94.45770833333333,133.94230769230768L94.698671875,137.98076923076923L94.93963541666666,150.76923076923077L95.18059895833333,133.26923076923077L95.42156250000001,148.75L95.66252604166667,146.05769230769232L95.90348958333334,142.69230769230768L96.144453125,123.17307692307692L96.38541666666666,143.3653846153846L96.62638020833333,109.03846153846153L96.86734375,154.1346153846154L97.10830729166666,131.92307692307693L97.34927083333334,142.01923076923077L97.59023437500001,152.1153846153846L97.83119791666667,112.40384615384615L98.07216145833334,148.75L98.31312500000001,140L98.55408854166666,137.3076923076923L98.79505208333333,145.3846153846154L99.036015625,144.71153846153845L99.27697916666666,148.75L99.51794270833334,129.90384615384616L99.75890625,127.8846153846154L99.99986979166667,150.76923076923077L100.24083333333334,128.55769230769232L100.48179687499999,149.4230769230769L100.72276041666666,135.96153846153845L100.96372395833333,138.65384615384616L101.20468749999999,140L101.44565104166666,139.3269230769231L101.68661458333334,144.71153846153845L101.927578125,121.15384615384615L102.16854166666667,140.67307692307693L102.40950520833334,129.90384615384616L102.65046875,110.38461538461539L102.89143229166666,142.01923076923077L103.13239583333333,131.92307692307693L103.37335937499999,137.98076923076923L103.61432291666667,146.73076923076923L103.85528645833334,104.32692307692308L104.09625,136.6346153846154L104.33721354166667,86.15384615384616L104.57817708333334,102.30769230769229L104.819140625,107.6923076923077L105.06010416666668,124.51923076923077L105.30106770833333,129.23076923076923L105.54203125,131.92307692307693L105.78299479166667,121.15384615384615L106.02395833333333,152.78846153846155L106.264921875,147.40384615384616L106.50588541666667,137.98076923076923L106.74684895833333,148.07692307692307L106.9878125,116.44230769230771L107.22877604166668,150.76923076923077L107.46973958333332,137.3076923076923L107.710703125,136.6346153846154L107.95166666666667,146.05769230769232L108.19263020833333,131.25L108.43359375,129.23076923076923L108.67455729166667,115.09615384615384L108.91552083333333,147.40384615384616L109.156484375,107.6923076923077L109.39744791666668,88.17307692307692L109.63841145833332,149.4230769230769L109.879375,119.13461538461539L110.12033854166667,126.53846153846153L110.36130208333333,110.38461538461539L110.602265625,142.69230769230768L110.84322916666667,146.73076923076923L111.08419270833333,85.48076923076924L111.32515625,121.15384615384615L111.56611979166667,82.78846153846153L111.80708333333332,136.6346153846154L112.048046875,117.11538461538463L112.28901041666666,144.71153846153845L112.52997395833333,117.78846153846155L112.7709375,144.71153846153845L113.01190104166666,113.07692307692307L113.25286458333333,117.11538461538463L113.49382812500001,148.75L113.73479166666667,88.17307692307692L113.97575520833334,144.71153846153845L114.21671875,136.6346153846154L114.45768229166666,142.69230769230768L114.69864583333333,100.28846153846153L114.939609375,146.73076923076923L115.18057291666666,132.59615384615384L115.42153645833334,148.75L115.66250000000001,150.76923076923077L115.90346354166667,143.3653846153846L116.14442708333334,132.59615384615384L116.38539062500001,138.65384615384616L116.62635416666666,86.15384615384616L116.86731770833333,105.67307692307693L117.10828125,136.6346153846154L117.34924479166666,49.80769230769231L117.59020833333334,128.55769230769232L117.831171875,130.57692307692307L118.07213541666667,133.94230769230768L118.31309895833334,104.32692307692308L118.55406249999999,110.38461538461539L118.79502604166666,135.28846153846155L119.03598958333333,146.73076923076923L119.27695312499999,127.8846153846154L119.51791666666666,148.07692307692307L119.75888020833334,131.25L119.99984375,121.15384615384615L120.24080729166667,114.42307692307692L120.48177083333334,78.07692307692307L120.722734375,72.6923076923077L120.96369791666666,144.71153846153845L121.20466145833333,124.51923076923077L121.44562499999999,100.28846153846153L121.68658854166667,100.28846153846153L121.92755208333334,132.59615384615384L122.168515625,103.65384615384616L122.40947916666667,67.98076923076923L122.65044270833334,92.88461538461539L122.89140625,117.78846153846155L123.13236979166668,30.288461538461547L123.37333333333333,77.40384615384615L123.614296875,88.84615384615384L123.85526041666667,115.76923076923076L124.09622395833333,147.40384615384616L124.3371875,124.51923076923077L124.57815104166667,108.36538461538461L124.81911458333333,138.65384615384616L125.060078125,102.98076923076924L125.30104166666668,96.25000000000001L125.54200520833332,136.6346153846154L125.78296875,135.96153846153845L126.02393229166667,141.34615384615384L126.26489583333333,155.48076923076923L126.505859375,118.46153846153847L126.74682291666667,116.44230769230771L126.98778645833333,62.59615384615384L127.22875,121.82692307692307L127.46971354166668,136.6346153846154L127.71067708333332,95.57692307692308L127.951640625,88.84615384615384L128.19260416666668,147.40384615384616L128.43356770833333,107.6923076923077L128.67453125,139.3269230769231L128.91549479166667,150.09615384615387L129.15645833333332,74.71153846153847L129.397421875,138.65384615384616L129.63838541666667,86.82692307692308L129.87934895833334,86.15384615384616L130.1203125,120.48076923076923L130.36127604166666,138.65384615384616L130.60223958333333,142.01923076923077L130.843203125,106.34615384615385L131.08416666666665,102.30769230769229L131.32513020833332,142.01923076923077L131.56609375,118.46153846153847L131.80705729166667,125.86538461538461L132.04802083333334,145.3846153846154L132.288984375,87.5L132.52994791666666,90.19230769230768L132.77091145833333,85.48076923076924L133.011875,59.90384615384615L133.25283854166665,115.09615384615384L133.49380208333332,112.40384615384615L133.734765625,85.48076923076924L133.97572916666667,105.67307692307693L134.21669270833334,137.3076923076923L134.45765625,70.67307692307692L134.69861979166666,66.63461538461539L134.93958333333333,90.8653846153846L135.180546875,96.25000000000001L135.42151041666668,150.09615384615387L135.66247395833332,96.25000000000001L135.9034375,47.78846153846154L136.14440104166667,122.49999999999999L136.38536458333334,152.78846153846155L136.626328125,119.8076923076923L136.86729166666666,68.65384615384616L137.10825520833333,107.6923076923077L137.34921875,55.19230769230769L137.59018229166668,61.92307692307692L137.83114583333335,92.21153846153847L138.072109375,144.03846153846152L138.31307291666667,79.42307692307693L138.55403645833334,111.73076923076923L138.795,99.61538461538461L139.03596354166666,96.92307692307693L139.27692708333333,93.5576923076923L139.517890625,140L139.75885416666668,119.13461538461539L139.99981770833335,108.36538461538461L140.24078125,102.30769230769229L140.48174479166667,123.17307692307692L140.72270833333334,46.44230769230768L140.963671875,114.42307692307692L141.20463541666666,45.09615384615384L141.44559895833333,89.51923076923076L141.6865625,131.92307692307693L141.92752604166668,106.34615384615385L142.16848958333333,78.07692307692307L142.409453125,28.269230769230766L142.65041666666667,123.17307692307692L142.89138020833332,83.46153846153845L143.13234375,88.17307692307692L143.37330729166666,32.98076923076923L143.61427083333334,67.3076923076923L143.855234375,68.65384615384616L144.09619791666668,111.73076923076923L144.33716145833333,29.615384615384606L144.578125,90.19230769230768L144.81908854166667,122.49999999999999L145.06005208333335,142.69230769230768L145.301015625,81.4423076923077L145.54197916666666,26.923076923076923L145.78294270833334,53.17307692307693L146.02390625,135.28846153846155L146.26486979166668,128.55769230769232L146.50583333333336,79.42307692307693L146.74679687499997,115.76923076923076L146.98776041666665,78.74999999999999L147.22872395833332,84.13461538461537L147.4696875,84.13461538461537L147.71065104166667,96.25000000000001L147.95161458333334,70L148.19257812499998,75.38461538461539L148.43354166666666,146.05769230769232L148.67450520833333,145.3846153846154L148.91546875,86.15384615384616L149.15643229166668,120.48076923076923L149.39739583333335,82.78846153846153L149.638359375,70.67307692307692L149.87932291666667,117.11538461538463L150.12028645833334,45.09615384615384L150.36125,46.44230769230768L150.60221354166669,37.019230769230774L150.84317708333333,73.36538461538461L151.084140625,67.3076923076923L151.32510416666665,26.923076923076923L151.56606770833332,88.17307692307692L151.80703125,122.49999999999999L152.04799479166667,132.59615384615384L152.2889583333333,92.21153846153847L152.52992187499999,45.09615384615384L152.77088541666666,123.84615384615384L153.01184895833333,124.51923076923077L153.2528125,67.98076923076923L153.49377604166668,67.3076923076923L153.73473958333332,95.57692307692308L153.975703125,89.51923076923076L154.21666666666667,93.5576923076923L154.45763020833334,26.923076923076923L154.69859375000001,51.153846153846146L154.9395572916667,84.13461538461537L155.18052083333333,123.17307692307692L155.421484375,146.73076923076923L155.66244791666668,113.07692307692307L155.90341145833335,26.923076923076923L156.144375,26.923076923076923L156.38533854166667,31.63461538461539L156.62630208333331,26.923076923076923L156.867265625,95.57692307692308L157.10822916666666,135.28846153846155L157.34919270833333,53.17307692307693L157.59015625,70.67307692307692L157.83111979166665,85.48076923076924L158.07208333333332,77.40384615384615L158.313046875,57.21153846153845L158.55401041666667,66.63461538461539L158.79497395833334,26.923076923076923L159.03593750000002,55.86538461538461L159.27690104166666,93.5576923076923L159.51786458333333,74.71153846153847L159.758828125,45.76923076923076L159.99979166666668,61.24999999999999L160.24075520833335,98.26923076923077L160.48171875000003,72.6923076923077L160.72268229166664,40.38461538461538L160.96364583333332,53.17307692307693L161.204609375,82.78846153846153L161.44557291666666,26.923076923076923L161.68653645833334,140L161.9275,92.88461538461539L162.16846354166665,144.03846153846152L162.40942708333333,26.923076923076923L162.650390625,39.71153846153846L162.89135416666667,75.38461538461539L163.13231770833335,67.3076923076923L163.37328125,111.73076923076923L163.61424479166666,84.13461538461537L163.85520833333334,82.11538461538461L164.096171875,119.13461538461539L164.33713541666668,26.923076923076923L164.57809895833336,26.923076923076923L164.81906249999997,64.61538461538461L165.06002604166665,110.38461538461539L165.30098958333332,78.74999999999999L165.541953125,26.923076923076923L165.78291666666667,128.55769230769232L166.02388020833334,47.78846153846154L166.26484374999998,119.13461538461539L166.50580729166666,79.42307692307693L166.74677083333333,82.11538461538461L166.987734375,135.96153846153845L167.22869791666668,121.15384615384615L167.46966145833335,41.73076923076924L167.710625,61.92307692307692L167.95158854166667,43.07692307692308L168.19255208333334,26.923076923076923L168.433515625,104.32692307692308L168.67447916666669,26.923076923076923L168.91544270833333,75.38461538461539L169.15640625,76.0576923076923L169.39736979166665,127.8846153846154L169.63833333333332,140.67307692307693L169.879296875,70.67307692307692L170.12026041666667,117.11538461538463L170.3612239583333,120.48076923076923L170.60218749999999,61.92307692307692L170.84315104166666,110.38461538461539L171.08411458333333,96.92307692307693L171.325078125,89.51923076923076L171.56604166666668,55.19230769230769L171.80700520833332,26.923076923076923L172.04796875,26.923076923076923L172.28893229166667,26.923076923076923L172.52989583333334,48.46153846153847L172.77085937500001,26.923076923076923L173.0118229166667,65.28846153846153L173.25278645833333,26.923076923076923L173.49375,26.923076923076923L173.73471354166668,83.46153846153845L173.97567708333335,117.78846153846155L174.216640625,65.28846153846153L174.45760416666667,26.923076923076923L174.69856770833331,41.05769230769232L174.93953125,26.923076923076923L175.18049479166666,70L175.42145833333333,31.63461538461539L175.662421875,59.23076923076923L175.90338541666665,98.26923076923077L176.14434895833332,102.30769230769229L176.3853125,86.15384615384616L176.62627604166667,26.923076923076923L176.86723958333334,77.40384615384615L177.10820312500002,76.73076923076923L177.34916666666666,51.153846153846146L177.59013020833333,34.32692307692307L177.83109375,84.13461538461537L178.07205729166668,137.3076923076923L178.31302083333335,94.23076923076923L178.55398437500003,61.92307692307692L178.79494791666664,50.480769230769226L179.03591145833332,95.57692307692308L179.276875,64.61538461538461L179.51783854166666,59.23076923076923L179.75880208333334,73.36538461538461L179.999765625,61.24999999999999L180.24072916666665,105.67307692307693L180.48169270833333,70L180.72265625,77.40384615384615L180.96361979166667,26.923076923076923L181.20458333333335,127.21153846153848L181.445546875,65.28846153846153L181.68651041666666,79.42307692307693L181.92747395833334,107.6923076923077L182.1684375,94.90384615384616L182.40940104166668,41.73076923076924L182.65036458333336,68.65384615384616L182.89132812499997,147.40384615384616L183.13229166666665,122.49999999999999L183.37325520833332,53.84615384615385L183.61421875,36.346153846153854L183.85518229166667,54.51923076923077L184.09614583333334,92.21153846153847L184.33710937499998,39.03846153846153L184.57807291666666,30.288461538461547L184.81903645833333,45.76923076923076L185.06,62.59615384615384L185.30096354166668,26.923076923076923L185.54192708333335,56.53846153846153L185.782890625,26.923076923076923L186.02385416666667,70L186.26481770833334,45.09615384615384L186.50578125,57.884615384615394L186.74674479166669,85.48076923076924L186.98770833333333,29.615384615384606L187.228671875,26.923076923076923L187.46963541666665,124.51923076923077L187.71059895833332,40.38461538461538L187.9515625,26.923076923076923L188.19252604166667,26.923076923076923L188.4334895833333,26.923076923076923L188.67445312499999,53.84615384615385L188.91541666666666,59.23076923076923L189.15638020833333,147.40384615384616L189.39734375,26.923076923076923L189.63830729166668,36.346153846153854L189.87927083333332,51.153846153846146L190.120234375,26.923076923076923L190.36119791666667,39.03846153846153L190.60216145833334,26.923076923076923L190.84312500000001,43.75L191.0840885416667,41.05769230769232L191.32505208333333,46.44230769230768L191.566015625,26.923076923076923L191.80697916666668,104.32692307692308L192.04794270833335,26.923076923076923L192.28890625,40.38461538461538L192.52986979166667,48.46153846153847L192.77083333333331,61.24999999999999L193.011796875,102.30769230769229L193.25276041666666,66.63461538461539L193.49372395833333,40.38461538461538L193.7346875,55.86538461538461L193.97565104166665,136.6346153846154L194.21661458333332,53.84615384615385L194.457578125,73.36538461538461L194.69854166666667,123.17307692307692L194.93950520833334,117.78846153846155L195.18046875000002,61.92307692307692L195.42143229166666,108.36538461538461L195.66239583333333,107.6923076923077L195.903359375,65.28846153846153L196.14432291666668,107.01923076923077L196.38528645833335,35.673076923076934L196.62625000000003,26.923076923076923L196.86721354166664,45.09615384615384L197.10817708333332,69.32692307692308L197.349140625,26.923076923076923L197.59010416666666,57.884615384615394L197.83106770833334,40.38461538461538L198.07203125,26.923076923076923L198.31299479166665,26.923076923076923L198.55395833333333,56.53846153846153L198.794921875,45.76923076923076L199.03588541666667,26.923076923076923L199.27684895833335,26.923076923076923L199.5178125,26.923076923076923L199.75877604166666,26.923076923076923L199.99973958333334,26.923076923076923L200.240703125,26.923076923076923L200.48166666666668,26.923076923076923L200.72263020833336,94.23076923076923L200.96359374999997,26.923076923076923L201.20455729166665,26.923076923076923L201.44552083333332,67.3076923076923L201.686484375,37.69230769230769L201.92744791666667,41.05769230769232L202.16841145833334,63.26923076923078L202.40937499999998,26.923076923076923L202.65033854166666,26.923076923076923L202.89130208333333,37.69230769230769L203.132265625,126.53846153846153L203.37322916666668,131.92307692307693L203.61419270833335,51.826923076923066L203.85515625,58.557692307692314L204.09611979166667,26.923076923076923L204.33708333333334,115.09615384615384L204.578046875,26.923076923076923L204.81901041666669,54.51923076923077L205.05997395833333,26.923076923076923L205.3009375,64.61538461538461L205.54190104166665,69.32692307692308L205.78286458333332,26.923076923076923L206.023828125,57.21153846153845L206.26479166666667,64.61538461538461L206.5057552083333,33.65384615384615L206.74671874999999,53.17307692307693L206.98768229166666,45.76923076923076L207.22864583333333,65.28846153846153L207.469609375,26.923076923076923L207.71057291666668,72.01923076923076L207.95153645833332,26.923076923076923L208.1925,40.38461538461538L208.43346354166667,51.153846153846146L208.67442708333334,51.153846153846146L208.91539062500001,34.32692307692307L209.1563541666667,55.19230769230769L209.39731770833333,55.19230769230769L209.63828125,47.11538461538462L209.87924479166668,76.73076923076923L210.12020833333335,39.03846153846153L210.361171875,61.24999999999999L210.60213541666667,62.59615384615384L210.84309895833331,63.9423076923077L211.0840625,70.67307692307692L211.32502604166666,74.71153846153847L211.56598958333333,79.42307692307693L211.806953125,67.98076923076923L212.04791666666665,72.6923076923077L212.28888020833332,61.92307692307692L212.52984375,43.07692307692308L212.77080729166667,70.67307692307692L213.01177083333334,83.46153846153845L213.25273437500002,66.63461538461539L213.49369791666666,74.03846153846155L213.73466145833333,50.480769230769226L213.975625,55.86538461538461L214.21658854166668,43.07692307692308L214.45755208333335,45.76923076923076L214.69851562500003,44.42307692307692L214.93947916666664,80.09615384615385L215.18044270833332,81.4423076923077L215.42140625,26.923076923076923L215.66236979166666,33.65384615384615L215.90333333333334,26.923076923076923L216.144296875,55.19230769230769L216.38526041666665,37.69230769230769L216.62622395833333,26.923076923076923L216.8671875,67.98076923076923L217.10815104166667,26.923076923076923L217.34911458333335,85.48076923076924L217.590078125,26.923076923076923L217.83104166666666,26.923076923076923L218.07200520833334,93.5576923076923L218.31296875,60.57692307692307L218.55393229166668,30.961538461538467L218.79489583333336,26.923076923076923L219.03585937499997,68.65384615384616L219.27682291666665,50.480769230769226L219.51778645833332,26.923076923076923L219.75875,26.923076923076923L219.99971354166667,26.923076923076923L220.24067708333334,46.44230769230768L220.48164062499998,86.82692307692308L220.72260416666666,26.923076923076923L220.96356770833333,26.923076923076923L221.20453125,26.923076923076923L221.44549479166668,29.615384615384606L221.68645833333335,26.923076923076923L221.927421875,103.65384615384616L222.16838541666667,26.923076923076923L222.40934895833334,26.923076923076923L222.6503125,50.480769230769226L222.89127604166669,26.923076923076923L223.13223958333333,26.923076923076923L223.373203125,26.923076923076923L223.61416666666665,26.923076923076923L223.85513020833332,26.923076923076923L224.09609375,26.923076923076923L224.33705729166667,26.923076923076923L224.5780208333333,26.923076923076923L224.81898437499999,26.923076923076923L225.05994791666666,26.923076923076923L225.30091145833333,26.923076923076923L225.541875,26.923076923076923L225.78283854166668,26.923076923076923L226.02380208333332,49.13461538461539L226.264765625,78.07692307692307L226.50572916666667,26.923076923076923L226.74669270833334,26.923076923076923L226.98765625000001,53.17307692307693L227.2286197916667,26.923076923076923L227.46958333333333,26.923076923076923L227.710546875,26.923076923076923L227.95151041666668,26.923076923076923L228.19247395833335,39.03846153846153L228.4334375,26.923076923076923L228.67440104166667,26.923076923076923L228.91536458333331,40.38461538461538L229.156328125,26.923076923076923L229.39729166666666,26.923076923076923L229.63825520833333,51.826923076923066L229.87921875,34.99999999999999L230.12018229166665,26.923076923076923L230.36114583333332,26.923076923076923L230.602109375,26.923076923076923L230.84307291666667,26.923076923076923L231.08403645833334,26.923076923076923L231.32500000000002,55.86538461538461L231.56596354166666,30.961538461538467L231.80692708333333,26.923076923076923L232.047890625,26.923076923076923L232.28885416666668,26.923076923076923L232.52981770833335,26.923076923076923L232.77078125000003,26.923076923076923L233.01174479166664,26.923076923076923L233.25270833333332,26.923076923076923L233.493671875,26.923076923076923L233.73463541666666,26.923076923076923L233.97559895833334,26.923076923076923L234.2165625,26.923076923076923L234.45752604166665,26.923076923076923L234.69848958333333,26.923076923076923L234.939453125,26.923076923076923L235.18041666666667,82.11538461538461L235.42138020833335,26.923076923076923L235.66234375,26.923076923076923L235.90330729166666,26.923076923076923L236.14427083333334,41.73076923076924L236.385234375,26.923076923076923L236.62619791666668,26.923076923076923L236.86716145833336,34.99999999999999L237.10812499999997,26.923076923076923L237.34908854166665,26.923076923076923L237.59005208333332,26.923076923076923L237.831015625,43.75L238.07197916666667,39.71153846153846L238.31294270833334,26.923076923076923L238.55390624999998,26.923076923076923L238.79486979166666,26.923076923076923L239.03583333333333,49.80769230769231L239.276796875,41.05769230769232L239.51776041666668,26.923076923076923L239.75872395833335,26.923076923076923L239.9996875,45.09615384615384L240.24065104166667,98.26923076923077L240.48161458333334,26.923076923076923L240.722578125,26.923076923076923L240.96354166666669,26.923076923076923L241.20450520833333,26.923076923076923L241.44546875,26.923076923076923L241.68643229166665,26.923076923076923L241.92739583333332,26.923076923076923L242.168359375,30.288461538461547L242.40932291666667,26.923076923076923L242.6502864583333,26.923076923076923L242.89124999999999,26.923076923076923L243.13221354166666,26.923076923076923L243.37317708333333,26.923076923076923L243.614140625,26.923076923076923L243.85510416666668,59.90384615384615L244.09606770833332,46.44230769230768L244.33703125,26.923076923076923L244.57799479166667,26.923076923076923L244.81895833333334,26.923076923076923L245.05992187500001,26.923076923076923L245.3008854166667,26.923076923076923L245.54184895833333,26.923076923076923L245.7828125,39.03846153846153L246.02377604166668,26.923076923076923L246.26473958333335,26.923076923076923L246.505703125,26.923076923076923L246.74666666666667,26.923076923076923L246.98763020833331,26.923076923076923L247.22859375,26.923076923076923L247.46955729166666,26.923076923076923L247.71052083333333,26.923076923076923L247.951484375,43.07692307692308L248.19244791666665,51.153846153846146L248.43341145833332,37.019230769230774L248.674375,26.923076923076923L248.91533854166667,26.923076923076923L249.15630208333334,42.40384615384616L249.39726562500002,50.480769230769226L249.63822916666666,26.923076923076923L249.87919270833333,26.923076923076923L250.12015625,39.71153846153846L250.36111979166668,32.98076923076923L250.60208333333335,26.923076923076923L250.84304687500003,26.923076923076923L251.08401041666664,58.557692307692314L251.32497395833332,26.923076923076923L251.5659375,26.923076923076923L251.80690104166666,26.923076923076923L252.04786458333334,26.923076923076923L252.288828125,26.923076923076923L252.52979166666665,32.98076923076923L252.77075520833333,61.92307692307692L253.01171875,41.05769230769232L253.25268229166667,37.69230769230769L253.49364583333335,37.019230769230774L253.734609375,26.923076923076923L253.97557291666666,57.884615384615394L254.21653645833334,26.923076923076923L254.4575,32.98076923076923L254.69846354166668,26.923076923076923L254.93942708333336,46.44230769230768L255.18039062499997,26.923076923076923L255.42135416666665,58.557692307692314L255.66231770833332,28.269230769230766L255.90328125,30.288461538461547L256.14424479166667,26.923076923076923L256.38520833333337,62.59615384615384L256.626171875,26.923076923076923L256.86713541666666,26.923076923076923L257.10809895833336,67.3076923076923L257.3490625,26.923076923076923L257.5900260416667,26.923076923076923L257.83098958333335,26.923076923076923L258.071953125,65.28846153846153L258.31291666666664,26.923076923076923L258.55388020833334,26.923076923076923L258.79484375,26.923076923076923L259.0358072916667,26.923076923076923L259.27677083333333,48.46153846153847L259.517734375,26.923076923076923L259.7586979166667,26.923076923076923L259.9996614583333,26.923076923076923L260.240625,56.53846153846153L260.48158854166667,60.57692307692307L260.7225520833333,67.3076923076923L260.963515625,26.923076923076923L261.20447916666666,26.923076923076923L261.44544270833336,26.923076923076923L261.68640625,50.480769230769226L261.9273697916667,26.923076923076923L262.1683333333333,48.46153846153847L262.409296875,26.923076923076923L262.65026041666664,26.923076923076923L262.89122395833334,26.923076923076923L263.1321875,101.63461538461537L263.3731510416667,26.923076923076923L263.61411458333333,47.78846153846154L263.855078125,26.923076923076923L264.0960416666667,26.923076923076923L264.3370052083333,26.923076923076923L264.57796875,26.923076923076923L264.81893229166667,36.346153846153854" style="fill: none;" fill="none"></path></g></g></g></g></g></g><g transform="translate(40, 175)" clip-path="url(#clip_1)"><clipPath id="clip_1"><rect width="289" height="25"></rect></clipPath><g><g><line x1="0" y1="0" x2="0" y2="5" style="visibility: inherit;" fill="rgb(0, 0, 0)" stroke="rgb(204, 204, 204)" stroke-width="1px"></line><line x1="24.096354166666664" y1="0" x2="24.096354166666664" y2="5" style="visibility: inherit;" fill="rgb(0, 0, 0)" stroke="rgb(204, 204, 204)" stroke-width="1px"></line><line x1="48.19270833333333" y1="0" x2="48.19270833333333" y2="5" style="visibility: inherit;" fill="rgb(0, 0, 0)" stroke="rgb(204, 204, 204)" stroke-width="1px"></line><line x1="72.2890625" y1="0" x2="72.2890625" y2="5" style="visibility: inherit;" fill="rgb(0, 0, 0)" stroke="rgb(204, 204, 204)" stroke-width="1px"></line><line x1="96.38541666666666" y1="0" x2="96.38541666666666" y2="5" style="visibility: inherit;" fill="rgb(0, 0, 0)" stroke="rgb(204, 204, 204)" stroke-width="1px"></line><line x1="120.48177083333334" y1="0" x2="120.48177083333334" y2="5" style="visibility: inherit;" fill="rgb(0, 0, 0)" stroke="rgb(204, 204, 204)" stroke-width="1px"></line><line x1="144.578125" y1="0" x2="144.578125" y2="5" style="visibility: inherit;" fill="rgb(0, 0, 0)" stroke="rgb(204, 204, 204)" stroke-width="1px"></line><line x1="168.67447916666669" y1="0" x2="168.67447916666669" y2="5" style="visibility: inherit;" fill="rgb(0, 0, 0)" stroke="rgb(204, 204, 204)" stroke-width="1px"></line><line x1="192.77083333333331" y1="0" x2="192.77083333333331" y2="5" style="visibility: inherit;" fill="rgb(0, 0, 0)" stroke="rgb(204, 204, 204)" stroke-width="1px"></line><line x1="216.8671875" y1="0" x2="216.8671875" y2="5" style="visibility: inherit;" fill="rgb(0, 0, 0)" stroke="rgb(204, 204, 204)" stroke-width="1px"></line><line x1="240.96354166666669" y1="0" x2="240.96354166666669" y2="5" style="visibility: inherit;" fill="rgb(0, 0, 0)" stroke="rgb(204, 204, 204)" stroke-width="1px"></line><line x1="265.0598958333333" y1="0" x2="265.0598958333333" y2="5" style="visibility: inherit;" fill="rgb(0, 0, 0)" stroke="rgb(204, 204, 204)" stroke-width="1px"></line><line x1="289.15625" y1="0" x2="289.15625" y2="5" style="visibility: inherit;" fill="rgb(0, 0, 0)" stroke="rgb(204, 204, 204)" stroke-width="1px"></line></g><g transform="translate(0, 8)"><text x="0" y="0" dx="0em" dy="0.95em" style="text-anchor: middle; visibility: hidden; font-family: Roboto, sans-serif; font-size: 12px; font-weight: 200;" fill="rgb(50, 49, 63)" stroke="none" stroke-width="1px">-100</text><text x="24.096354166666664" y="0" dx="0em" dy="0.95em" style="text-anchor: middle; visibility: inherit; font-family: Roboto, sans-serif; font-size: 12px; font-weight: 200;" fill="rgb(50, 49, 63)" stroke="none" stroke-width="1px">0</text><text x="48.19270833333333" y="0" dx="0em" dy="0.95em" style="text-anchor: middle; visibility: hidden; font-family: Roboto, sans-serif; font-size: 12px; font-weight: 200;" fill="rgb(50, 49, 63)" stroke="none" stroke-width="1px">100</text><text x="72.2890625" y="0" dx="0em" dy="0.95em" style="text-anchor: middle; visibility: inherit; font-family: Roboto, sans-serif; font-size: 12px; font-weight: 200;" fill="rgb(50, 49, 63)" stroke="none" stroke-width="1px">200</text><text x="96.38541666666666" y="0" dx="0em" dy="0.95em" style="text-anchor: middle; visibility: hidden; font-family: Roboto, sans-serif; font-size: 12px; font-weight: 200;" fill="rgb(50, 49, 63)" stroke="none" stroke-width="1px">300</text><text x="120.48177083333334" y="0" dx="0em" dy="0.95em" style="text-anchor: middle; visibility: inherit; font-family: Roboto, sans-serif; font-size: 12px; font-weight: 200;" fill="rgb(50, 49, 63)" stroke="none" stroke-width="1px">400</text><text x="144.578125" y="0" dx="0em" dy="0.95em" style="text-anchor: middle; visibility: hidden; font-family: Roboto, sans-serif; font-size: 12px; font-weight: 200;" fill="rgb(50, 49, 63)" stroke="none" stroke-width="1px">500</text><text x="168.67447916666669" y="0" dx="0em" dy="0.95em" style="text-anchor: middle; visibility: inherit; font-family: Roboto, sans-serif; font-size: 12px; font-weight: 200;" fill="rgb(50, 49, 63)" stroke="none" stroke-width="1px">600</text><text x="192.77083333333331" y="0" dx="0em" dy="0.95em" style="text-anchor: middle; visibility: hidden; font-family: Roboto, sans-serif; font-size: 12px; font-weight: 200;" fill="rgb(50, 49, 63)" stroke="none" stroke-width="1px">700</text><text x="216.8671875" y="0" dx="0em" dy="0.95em" style="text-anchor: middle; visibility: inherit; font-family: Roboto, sans-serif; font-size: 12px; font-weight: 200;" fill="rgb(50, 49, 63)" stroke="none" stroke-width="1px">800</text><text x="240.96354166666669" y="0" dx="0em" dy="0.95em" style="text-anchor: middle; visibility: hidden; font-family: Roboto, sans-serif; font-size: 12px; font-weight: 200;" fill="rgb(50, 49, 63)" stroke="none" stroke-width="1px">900</text><text x="265.0598958333333" y="0" dx="0em" dy="0.95em" style="text-anchor: middle; visibility: inherit; font-family: Roboto, sans-serif; font-size: 12px; font-weight: 200;" fill="rgb(50, 49, 63)" stroke="none" stroke-width="1px">1k</text><text x="289.15625" y="0" dx="0em" dy="0.95em" style="text-anchor: middle; visibility: hidden; font-family: Roboto, sans-serif; font-size: 12px; font-weight: 200;" fill="rgb(50, 49, 63)" stroke="none" stroke-width="1px">1.1k</text></g><line x1="0" y1="0" x2="289.15625" y2="0" fill="rgb(0, 0, 0)" stroke="rgb(204, 204, 204)" stroke-width="1px"></line></g></g></g></g></svg>